<svg width="20" height="20" viewBox="0 0 20 20" fill="none" xmlns="http://www.w3.org/2000/svg">
<path fill-rule="evenodd" clip-rule="evenodd" d="M10.2888 0.833313C12.5163 0.833313 12.8407 0.84523 13.7794 0.888313C14.7548 0.93323 15.4212 1.08815 16.0042 1.31456C16.616 1.54453 17.1704 1.90522 17.6285 2.37148C18.0948 2.82961 18.4555 3.38394 18.6854 3.99581C18.9118 4.57881 19.0668 5.24523 19.1117 6.22056C19.1557 7.19865 19.1667 7.51031 19.1667 9.99998V10.0733C19.1667 12.4961 19.1557 12.8114 19.1117 13.7794C19.0668 14.7547 18.9118 15.4211 18.6854 16.0041C18.4555 16.616 18.0948 17.1704 17.6285 17.6285C17.1704 18.0947 16.616 18.4554 16.0042 18.6854C15.4212 18.9118 14.7548 19.0667 13.7794 19.1116C12.8013 19.1556 12.4897 19.1666 10 19.1666H9.92667C7.50392 19.1666 7.18858 19.1556 6.22058 19.1116C5.24525 19.0667 4.57883 18.9118 3.99583 18.6854C3.38396 18.4554 2.82963 18.0947 2.3715 17.6285C1.90524 17.1704 1.54455 16.616 1.31458 16.0041C1.08817 15.4211 0.933251 14.7547 0.888334 13.7794C0.845251 12.8407 0.833334 12.5153 0.833334 10.2887V9.71123C0.833334 7.48373 0.845251 7.15923 0.888334 6.22056C0.933251 5.24523 1.08817 4.57881 1.31458 3.99581C1.54455 3.38394 1.90524 2.82961 2.3715 2.37148C2.82963 1.90522 3.38396 1.54453 3.99583 1.31456C4.57883 1.08815 5.24525 0.93323 6.22058 0.888313C7.15925 0.84523 7.48467 0.833313 9.71125 0.833313H10.2888ZM10.2145 2.48515H9.7855C7.53417 2.48515 7.2335 2.49523 6.29575 2.53831C5.402 2.57956 4.91708 2.72806 4.5935 2.85365C4.16542 3.02048 3.86017 3.21848 3.53933 3.53931C3.2185 3.86015 3.0205 4.1654 2.85367 4.59348C2.72808 4.91706 2.57867 5.40198 2.53833 6.29573C2.49525 7.23348 2.48517 7.53415 2.48517 9.78548V10.2145C2.48517 12.4658 2.49525 12.7665 2.53833 13.7042C2.57958 14.598 2.72808 15.0829 2.85367 15.4065C3.0205 15.8336 3.21942 16.1398 3.53933 16.4606C3.86017 16.7815 4.16542 16.9795 4.5935 17.1463C4.91708 17.2719 5.402 17.4213 6.29575 17.4616C7.26192 17.5056 7.55158 17.5148 10 17.5148H10.0733C12.4539 17.5148 12.7473 17.5056 13.7033 17.4616C14.598 17.4204 15.0829 17.2719 15.4065 17.1463C15.8337 16.9795 16.1398 16.7815 16.4607 16.4606C16.7815 16.1398 16.9795 15.8346 17.1463 15.4065C17.2719 15.0829 17.4213 14.598 17.4617 13.7042C17.5057 12.7371 17.5148 12.4484 17.5148 9.99998V9.92665C17.5148 7.54606 17.5057 7.25273 17.4617 6.29665C17.4204 5.40198 17.2719 4.91706 17.1463 4.59348C16.9995 4.19525 16.7652 3.83503 16.4607 3.53931C16.1649 3.23485 15.8047 3.00055 15.4065 2.85365C15.0829 2.72806 14.598 2.57865 13.7043 2.53831C12.7665 2.49523 12.4658 2.48515 10.2145 2.48515ZM10 5.2929C10.6181 5.2929 11.2302 5.41465 11.8013 5.6512C12.3724 5.88775 12.8913 6.23448 13.3284 6.67157C13.7655 7.10866 14.1122 7.62757 14.3488 8.19866C14.5853 8.76975 14.7071 9.38184 14.7071 9.99998C14.7071 10.6181 14.5853 11.2302 14.3488 11.8013C14.1122 12.3724 13.7655 12.8913 13.3284 13.3284C12.8913 13.7655 12.3724 14.1122 11.8013 14.3488C11.2302 14.5853 10.6181 14.7071 10 14.7071C8.7516 14.7071 7.55434 14.2111 6.67159 13.3284C5.78884 12.4456 5.29292 11.2484 5.29292 9.99998C5.29292 8.75158 5.78884 7.55432 6.67159 6.67157C7.55434 5.78882 8.7516 5.2929 10 5.2929ZM10 6.94473C9.1897 6.94473 8.41258 7.26662 7.83961 7.83959C7.26664 8.41256 6.94475 9.18968 6.94475 9.99998C6.94475 10.8103 7.26664 11.5874 7.83961 12.1604C8.41258 12.7333 9.1897 13.0552 10 13.0552C10.8103 13.0552 11.5874 12.7333 12.1604 12.1604C12.7334 11.5874 13.0553 10.8103 13.0553 9.99998C13.0553 9.18968 12.7334 8.41256 12.1604 7.83959C11.5874 7.26662 10.8103 6.94473 10 6.94473ZM14.8932 4.00681C15.1849 4.00681 15.4647 4.12271 15.671 4.329C15.8773 4.53529 15.9932 4.81508 15.9932 5.10681C15.9932 5.39855 15.8773 5.67834 15.671 5.88463C15.4647 6.09092 15.1849 6.20681 14.8932 6.20681C14.6014 6.20681 14.3216 6.09092 14.1153 5.88463C13.9091 5.67834 13.7932 5.39855 13.7932 5.10681C13.7932 4.81508 13.9091 4.53529 14.1153 4.329C14.3216 4.12271 14.6014 4.00681 14.8932 4.00681Z" fill="#C02176"/>
</svg>
