<svg width="20" height="16" viewBox="0 0 20 16" fill="none" xmlns="http://www.w3.org/2000/svg">
<path d="M6.59917 15.5634C13.5172 15.5634 17.3012 9.83152 17.3012 4.86135C17.3012 4.69819 17.3012 4.53594 17.2902 4.37552C18.0265 3.8425 18.6619 3.18258 19.1667 2.42669C18.4801 2.73102 17.7518 2.93064 17.0061 3.01885C17.7913 2.54866 18.379 1.80917 18.6597 0.938021C17.9216 1.37608 17.114 1.68486 16.2718 1.85102C15.7048 1.24764 14.9546 0.848036 14.1375 0.714084C13.3204 0.580132 12.4819 0.719304 11.7519 1.11005C11.0218 1.5008 10.441 2.12132 10.0993 2.87554C9.75754 3.62976 9.674 4.47561 9.86158 5.2821C8.36612 5.20716 6.90313 4.81857 5.56759 4.14156C4.23205 3.46455 3.0538 2.51425 2.10933 1.35235C1.62838 2.18029 1.48104 3.16041 1.69732 4.09316C1.91361 5.0259 2.47725 5.84116 3.2735 6.37294C2.67515 6.35562 2.08975 6.19465 1.56667 5.9036V5.95127C1.56702 6.81963 1.8677 7.66113 2.4177 8.3331C2.9677 9.00506 3.73318 9.46613 4.58433 9.6381C4.03049 9.78909 3.4494 9.81104 2.88575 9.70227C3.12606 10.4498 3.59404 11.1035 4.2242 11.5719C4.85436 12.0403 5.61519 12.3001 6.40025 12.3148C5.62028 12.9276 4.72714 13.3807 3.77192 13.6481C2.81669 13.9155 1.81813 13.9919 0.833334 13.8731C2.55355 14.9771 4.55517 15.5626 6.59917 15.5598" fill="#5DA9DD"/>
</svg>
