<svg width="512" height="512" viewBox="0 0 512 512" fill="none" xmlns="http://www.w3.org/2000/svg">
<path d="M496.921 424.647C516.92 444.645 516.92 477.043 496.921 497.041C487.002 507.04 473.883 512 460.764 512C447.645 512 434.558 507 424.575 497.001L255.98 328.494L87.4012 496.961C77.402 507.04 64.299 512 51.196 512C38.093 512 25.006 507.04 14.9988 496.961C-4.99961 476.963 -4.99961 444.565 14.9988 424.567L183.626 255.94L14.9988 87.3932C-4.99961 67.3948 -4.99961 34.9973 14.9988 14.9988C34.9973 -4.99961 67.3947 -4.99961 87.3932 14.9988L255.98 183.706L424.607 15.0788C444.605 -4.91961 477.003 -4.91961 497.001 15.0788C517 35.0773 517 67.4747 497.001 87.4732L328.374 256.1L496.921 424.647Z" fill="white"/>
</svg>
